<?xml version="1.0" encoding="utf-8"?>
<!-- Generator: Adobe Illustrator 21.0.0, SVG Export Plug-In . SVG Version: 6.00 Build 0)  -->
<svg version="1.1" id="Layer_1" xmlns="http://www.w3.org/2000/svg" xmlns:xlink="http://www.w3.org/1999/xlink" x="0px" y="0px"
	 viewBox="0 0 512 512" style="enable-background:new 0 0 512 512;" xml:space="preserve">
<g>
	<path d="M181.3,21.3c-22.8,0-42.7,13-55.3,30.7s-19.3,40.6-19.3,65.3s6.7,47.7,19.3,65.3s32.5,30.7,55.3,30.7s42.7-13,55.3-30.7
		c12.7-17.7,19.3-40.6,19.3-65.3s-6.7-47.7-19.3-65.3C224,34.3,204.2,21.3,181.3,21.3z M256,117.3c0,24.7,6.7,47.7,19.3,65.3
		c12.7,17.7,32.5,30.7,55.3,30.7s42.7-13,55.3-30.7s19.3-40.6,19.3-65.3S398.7,69.7,386,52s-32.5-30.7-55.3-30.7S288,34.3,275.4,52
		C262.7,69.7,256,92.6,256,117.3z M181.3,64c6.7,0,14,3.3,20.7,12.7s11.3,24.2,11.3,40.7s-4.7,31.3-11.3,40.7s-14,12.7-20.7,12.7
		s-14-3.3-20.7-12.7c-6.7-9.3-11.3-24.2-11.3-40.7S154,86,160.7,76.7C167.3,67.3,174.7,64,181.3,64z M330.7,64
		c6.7,0,14,3.3,20.7,12.7c6.7,9.3,11.3,24.2,11.3,40.7s-4.7,31.3-11.3,40.7c-6.7,9.3-14,12.7-20.7,12.7s-14-3.3-20.7-12.7
		s-11.3-24.2-11.3-40.7S303.3,86,310,76.7S324,64,330.7,64z M74.7,170.7c-22.8,0-42.7,13-55.3,30.7S0,241.9,0,266.7
		s6.7,47.7,19.3,65.3s32.5,30.7,55.3,30.7s42.7-13,55.3-30.7s19.3-40.6,19.3-65.3s-6.7-47.7-19.3-65.3S97.5,170.7,74.7,170.7z
		 M437.3,170.7c-22.8,0-42.7,13-55.3,30.7s-19.3,40.6-19.3,65.3s6.7,47.7,19.3,65.3s32.5,30.7,55.3,30.7s42.7-13,55.3-30.7
		c12.7-17.7,19.3-40.6,19.3-65.3s-6.7-47.7-19.3-65.3C480,183.7,460.2,170.7,437.3,170.7z M74.7,213.3c6.7,0,14,3.3,20.7,12.7
		c6.7,9.3,11.3,24.2,11.3,40.7S102,298,95.3,307.3S81.3,320,74.6,320s-14-3.3-20.7-12.7c-6.7-9.3-11.3-24.2-11.3-40.7
		S47.3,235.3,54,226S68,213.3,74.7,213.3z M437.3,213.3c6.7,0,14,3.3,20.7,12.7s11.3,24.2,11.3,40.7s-4.7,31.3-11.3,40.7
		c-6.7,9.3-14,12.7-20.7,12.7s-14-3.3-20.7-12.7c-6.7-9.3-11.3-24.2-11.3-40.7s4.7-31.3,11.3-40.7
		C423.3,216.7,430.7,213.3,437.3,213.3z M256,256c-28.4,0-48.3,18.5-58,34.7c-9.8,16.2-15.7,29.7-21.3,35.3
		c-3.3,3.3-23.9,11.1-45.3,22c-10.7,5.5-21.6,12.8-30.7,24s-15.3,26.7-15.3,44c0,41,33.7,74.7,74.7,74.7c18.5,0,37.8-5.9,56.7-11.3
		s39.3-10,39.3-10s20.4,4.6,39.3,10s38.2,11.3,56.7,11.3c41,0,74.7-33.7,74.7-74.7c0-16.9-6.3-32.4-15.3-43.3
		c-9.1-10.9-20-17.7-30.7-23.3C359.3,338,338.3,329,335.3,326c-5.1-5.1-10.8-19-20.7-35.3C304.8,274.3,284.6,256,256,256z
		 M256,298.7c14.1,0,15.7,3.4,22,14s11.2,28.5,26.7,44c17.6,17.6,39.8,21.4,56,30c8.1,4.3,14.3,8.9,18,13.3s5.3,8.5,5.3,16
		c0,17.9-14.1,32-32,32c-6.2,0-26.1-4.8-44.7-10c-18.6-5.3-33.9-11.3-51.3-11.3s-32.8,6.1-51.3,11.3s-38.5,10-44.7,10
		c-17.9,0-32-14.1-32-32c0-8.6,1.8-13,5.3-17.3c3.6-4.3,10.1-8.6,18-12.7c15.9-8.1,38-11.3,56-29.3C223,341,227.8,322.5,234,312
		S241.8,298.7,256,298.7z"/>
</g>
</svg>
